# AST/ASF file generated using VICON BodyLanguage
# -----------------------------------------------
:version 1.10
:name VICON
:units
  mass 1.0
  length 0.45
  angle deg
:documentation
   .ast/.asf automatically generated from VICON data using
   VICON BodyBuilder and BodyLanguage model FoxedUp or BRILLIANT.MOD
:root
   order TX TY TZ RX RY RZ
   axis XYZ
   position 0 0 0  
   orientation 0 0 0 
:bonedata
  begin
     id 1 
     name lhipjoint
     direction 0.558404 -0.748506 0.357664 
     length 2.4234 
     axis 0 0 0  XYZ
  end
  begin
     id 2 
     name lfemur
     direction 0.34202 -0.939693 0  
     length 7.14567  
     axis 0 0 20  XYZ
    dof rx ry rz
    limits (-160.0 20.0)
           (-70.0 70.0)
           (-60.0 70.0)
  end
  begin
     id 3 
     name ltibia
     direction 0.34202 -0.939693 0   
     length 8.13956   
     axis 0 0 20   XYZ
    dof rx
    limits (-10.0 170.0)
  end
  begin
     id 4 
     name lfoot
     direction 0.0791314 -0.217412 0.972867   
     length 2.00134   
     axis -90 7.62852e-016 20   XYZ
    dof rx rz
    limits (-45.0 90.0)
           (-70.0 20.0)
  end
  begin
     id 5 
     name ltoes
     direction 1.53547e-011 -4.21922e-011 1   
     length 1.00735   
     axis -90 7.62852e-016 20   XYZ
    dof rx
    limits (-90.0 20.0)
  end
  begin
     id 6 
     name rhipjoint
     direction -0.496392 -0.78327 0.374276   
     length 2.31584  
     axis 0 0 0  XYZ 
  end
  begin
     id 7 
     name rfemur
     direction -0.34202 -0.939693 0   
     length 7.47417   
     axis 0 0 -20   XYZ
    dof rx ry rz
    limits (-160.0 20.0)
           (-70.0 70.0)
           (-70.0 60.0)
  end
  begin
     id 8 
     name rtibia
     direction -0.34202 -0.939693 0   
     length 7.69071   
     axis 0 0 -20   XYZ
    dof rx
    limits (-10.0 170.0)
 end
 begin
     id 9 
     name rfoot
     direction -0.103069 -0.28318 0.953512   
     length 2.16135  
     axis -90 -7.62852e-016 -20   XYZ
    dof rx rz
    limits (-45.0 90.0)
           (-20.0 70.0)
  end
  begin
     id 10 
     name rtoes
     direction -1.53581e-011 -4.21904e-011 1   
     length 1.07867   
     axis -90 -7.62852e-016 -20   XYZ
    dof rx
    limits (-90.0 20.0)
  end
  begin
     id 11 
     name lowerback
     direction -0.0258961 0.994776 -0.0987407   
     length 2.19412   
     axis 0 0 0   XYZ
    dof rx ry rz
    limits (-20.0 45.0)
           (-30.0 30.0)
           (-30.0 30.0)
  end
  begin
     id 12 
     name upperback
     direction 0.0402454 0.999185 0.00320666   
     length 2.18445   
     axis 0 0 0   XYZ
    dof rx ry rz
    limits (-20.0 45.0)
           (-30.0 30.0)
           (-30.0 30.0)
  end
  begin
     id 13 
     name thorax
     direction 0.0519376 0.997415 0.0496558   
     length 2.21487   
     axis 0 0 0   XYZ
    dof rx ry rz
    limits (-20.0 45.0)
           (-30.0 30.0)
           (-30.0 30.0)
  end
  begin
     id 14 
     name lowerneck
     direction -0.0921276 0.983211 0.157506   
     length 1.61201   
     axis 0 0 0   XYZ
    dof rx ry rz
    limits (-20.0 45.0)
           (-30.0 30.0)
           (-30.0 30.0)
  end
  begin
     id 15 
     name upperneck
     direction 0.0820814 0.98162 -0.172292   
     length 1.65275   
     axis 0 0 0   XYZ
    dof rx ry rz
    limits (-20.0 45.0)
           (-30.0 30.0)
           (-30.0 30.0)
  end
  begin
     id 16
     name head
     direction 0.0336554 0.996413 -0.0776455  
     length 1.66415  
     axis 0 0 0   XYZ
    dof rx ry rz
    limits (-20.0 45.0)
           (-30.0 30.0)
           (-30.0 30.0)
  end
  begin
     id 17 
     name lclavicle
     direction 0.94696 0.284418 -0.149576  
     length 3.41447  
     axis 0 0 0   XYZ
    dof ry rz
    limits (-20.0 10.0)
           (0.0 20.0)
  end
  begin
     id 18 
     name lhumerus
     direction 1 -0.000130264 -9.81312e-005   
     length 5.19964   
     axis 180 -30 -90   XYZ
    dof rx ry rz
    limits (-60.0 90.0)
           (-90.0 90.0)
           (-90.0 90.0)
  end
  begin
     id 19
     name lradius
     direction 1 -4.48961e-011 1.43854e-026   
     length 3.32189   
     axis 180 -30 -90   XYZ
    dof rx
    limits (-10.0 170.0)
  end
  begin
     id 20
     name lwrist
     direction 1 -4.48958e-011 3.1502e-026   
     length 1.66095   
     axis -1.97692e-014 90 90   XYZ
    dof ry
    limits (-180.0 0.0)
 end
  begin
     id 21 
     name lhand
     direction 1 -4.48927e-011 6.3004e-026   
     length 0.645616   
     axis -4.02019e-014 90 90   XYZ
    dof rx rz
    limits (-90.0 90.0)
           (-45.0 45.0)
  end
  begin
     id 22 
     name lfingers
     direction 1 -4.4904e-011 1.26008e-025   
     length 0.520512   
     axis -8.04039e-014 90 90   XYZ
    dof rx
    limits (0.0 90.0)
  end
  begin
     id 23
     name lthumb
     direction 0.707107 -6.34947e-011 0.707107   
     length 0.747354   
     axis -90 45 2.85299e-015   XYZ
    dof rx rz
    limits (-45.0 45.0)
           (-45.0 45.0)
  end
  begin
     id 24 
     name rclavicle
     direction -0.909391 0.383475 -0.161107   
     length 3.25176  
     axis 0 0 0   XYZ 
    dof ry rz
    limits (-10.0 20.0)
           (-20.0 0.0)
  end
  begin
     id 25 
     name rhumerus
     direction -1 -4.48965e-011 -1.81384e-027  
     length 5.6595   
     axis 180 30 90   XYZ
    dof rx ry rz
    limits (-90.0 60.0)
           (-90.0 90.0)
           (-90.0 90.0)
  end
  begin
     id 26 
     name rradius
     direction -1 -4.48996e-011 -8.09397e-027   
     length 3.37604   
     axis 180 30 90   XYZ
    dof rx
    limits (-10.0 170.0)
  end
  begin
     id 27 
     name rwrist
     direction -1 -4.48927e-011 -1.56669e-026   
     length 1.68802   
     axis 1.21142e-014 -90 -90   XYZ
    dof ry
    limits (-180.0 0.0)
  end
  begin
     id 28
     name rhand
     direction -1 -4.48912e-011 -3.13339e-026   
     length 0.824702   
     axis 1.99937e-014 -90 -90   XYZ
    dof rx rz
    limits (-90.0 90.0)
           (-45.0 45.0)
  end
  begin
     id 29
     name rfingers
     direction -1 -4.49011e-011 -6.26677e-026   
     length 0.664896   
     axis 3.99874e-014 -90 -90   XYZ
    dof rx
    limits (0.0 90.0)
  end
  begin
     id 30
     name rthumb
     direction -0.707107 -6.34931e-011 0.707107   
     length 0.954662   
     axis -90 -45 -2.85299e-015   XYZ
    dof rx rz
    limits (-45.0 45.0)
           (-45.0 45.0)
  end
:hierarchy
  begin
    root lhipjoint rhipjoint lowerback
    lhipjoint lfemur
    lfemur ltibia
    ltibia lfoot
    lfoot ltoes
    rhipjoint rfemur
    rfemur rtibia
    rtibia rfoot
    rfoot rtoes
    lowerback upperback
    upperback thorax
    thorax lowerneck lclavicle rclavicle
    lowerneck upperneck
    upperneck head
    lclavicle lhumerus
    lhumerus lradius
    lradius lwrist
    lwrist lhand lthumb
    lhand lfingers
    rclavicle rhumerus
    rhumerus rradius
    rradius rwrist
    rwrist rhand rthumb
    rhand rfingers
  end

#!OML:ASF F:\VICON\USERDATA\INSTALL\rory3\rory3.ASF
:FULLY-SPECIFIED
:DEGREES
430
root 4.20374 14.8006 4.63859 -12.1938 -5.79425 0.588497
lowerback 15.9348 -8.03996 -6.98091
upperback 5.05929 -11.5856 5.89222
thorax -0.668231 -6.09811 11.9342
lowerneck -12.7691 -1.61799 -8.08119
upperneck 30.1647 -1.94128 4.5005
head 12.1613 -1.31088 2.8128
rclavicle -8.44835e-014 3.65764e-014
rhumerus -61.2354 -27.1864 -51.8564
rradius 25.4892
rwrist -5.95226
rhand -16.6501 24.3466
rfingers 7.12502
rthumb 9.573 -5.41593
lclavicle -8.44835e-014 3.65764e-014
lhumerus 4.12579 6.41763 102.041
lradius 20.308
lwrist -6.83296
lhand -17.0431 32.9694
lfingers 7.12502
lthumb 9.19376 62.7489
rfemur -60.3645 -11.3447 36.7245
rtibia 50.498
rfoot 7.8799 -18.5404
rtoes 19.9898
lfemur -17.2777 14.7622 -45.199
ltibia 62.6671
lfoot -24.0973 -2.28662
ltoes 36.3791
431
root 4.29052 14.8426 4.82986 -12.2547 -4.99365 1.047
lowerback 16.0443 -8.44431 -7.74351
upperback 4.79084 -12.2513 5.94416
thorax -0.665431 -6.4422 12.5083
lowerneck -12.647 -1.16196 -7.99069
upperneck 30.0049 -1.2077 4.16673
head 12.0125 -1.01319 2.7678
rclavicle -5.40694e-014 -4.92986e-014
rhumerus -61.4661 -27.3632 -50.4976
rradius 24.6705
rwrist -4.37582
rhand -15.8812 24.2753
rfingers 7.12502
rthumb 10.3147 -5.4518
lclavicle -5.40694e-014 -4.92986e-014
lhumerus 4.66856 -0.0752671 103.851
lradius 20.5282
lwrist -4.3382
lhand -15.9846 33.6544
lfingers 7.12502
lthumb 10.215 63.3864
rfemur -60.1726 -10.355 36.8559
rtibia 52.8462
rfoot 9.15176 -17.7196
rtoes 20.6904
lfemur -15.6727 15.0379 -45.6921
ltibia 61.6952
lfoot -23.292 -3.28872
ltoes 35.9981
432
root 4.40761 14.8749 5.0188 -12.285 -3.6424 2.49399
lowerback 16.332 -8.94908 -9.07234
upperback 4.39869 -13.1625 5.63795
thorax -0.765021 -6.89006 13.0502
lowerneck -12.0481 -0.606117 -7.97896
upperneck 29.3774 -0.397345 4.00292
head 11.5798 -0.658475 2.7956
rclavicle -1.62208e-013 6.20208e-014
rhumerus -61.0752 -26.7715 -50.5728
rradius 24.4279
rwrist -4.86233
rhand -15.8026 23.2091
rfingers 7.12502
rthumb 10.3906 -6.51414
lclavicle -1.62208e-013 6.20208e-014
lhumerus 5.27416 -6.54495 105.384
lradius 21.2608
lwrist -1.76076
lhand -15.1994 34.3385
lfingers 7.12502
lthumb 10.9724 64.0318
rfemur -60.2771 -10.4902 36.0018
rtibia 55.0462
rfoot 12.1193 -14.7172
rtoes 21.4589
lfemur -13.9374 14.9529 -47.5167
ltibia 60.5709
lfoot -22.3072 -4.14532
ltoes 35.2492
433
root 4.50137 14.9654 5.21307 -12.0529 -4.03395 1.15233
lowerback 15.9647 -9.33622 -7.97038
upperback 4.28368 -13.4709 6.18116
thorax -0.729351 -7.04677 13.0084
lowerneck -11.3142 0.0572082 -8.01807
upperneck 28.9968 0.578841 3.73437
head 11.2143 -0.250448 2.81135
rclavicle -2.42517e-014 1.59028e-015
rhumerus -60.5618 -25.6103 -51.0775
rradius 24.3717
rwrist -6.01069
rhand -15.5139 22.3679
rfingers 7.12502
rthumb 10.669 -7.34125
lclavicle -2.42517e-014 1.59028e-015
lhumerus 5.67711 -11.2114 107.138
lradius 22.3091
lwrist -0.976422
lhand -12.8385 34.8199
lfingers 7.12502
lthumb 13.2489 64.3788
rfemur -59.1179 -8.5702 38.1123
rtibia 56.5172
rfoot 15.2338 -11.2867
rtoes 18.7517
lfemur -13.198 15.9936 -45.7138
ltibia 59.8542
lfoot -21.0294 -5.80079
ltoes 35.9207
434
root 4.63526 15.0309 5.40667 -11.5956 -4.11851 1.39267
lowerback 15.6698 -9.61699 -7.8069
upperback 3.75367 -13.7981 6.31126
thorax -1.06672 -7.16119 13.086
lowerneck -10.8391 0.646766 -8.00512
upperneck 29.0429 1.47387 3.37093
head 11.0793 0.108063 2.77917
rclavicle -7.07673e-014 3.81667e-014
rhumerus -60.4033 -24.7837 -50.8461
rradius 24.286
rwrist -6.74006
rhand -14.7062 21.993
rfingers 7.12502
rthumb 11.4481 -7.67448
lclavicle -7.07673e-014 3.81667e-014
lhumerus 5.83308 -15.6955 109.055
lradius 23.4829
lwrist -0.539972
lhand -10.7548 34.6753
lfingers 7.12502
lthumb 15.2567 64.0927
rfemur -58.7 -7.48177 38.7046
rtibia 57.932
rfoot 18.7256 -6.48013
rtoes 13.7347
lfemur -12.6414 16.723 -46.1006
ltibia 58.9111
lfoot -19.4035 -6.78543
ltoes 35.9317
435
root 4.7685 15.0946 5.59008 -11.1395 -3.8762 1.55961
lowerback 15.3955 -9.99583 -7.64273
upperback 3.33931 -14.2585 6.42319
thorax -1.25661 -7.36033 13.1365
lowerneck -10.8921 1.1376 -7.85726
upperneck 29.2743 2.23159 3.06738
head 11.135 0.423482 2.73897
rclavicle 9.02482e-014 -4.6118e-014
rhumerus -60.0924 -24.5278 -50.3753
rradius 24.0294
rwrist -6.97221
rhand -14.0447 21.7946
rfingers 7.12502
rthumb 12.086 -7.83633
lclavicle 9.02482e-014 -4.6118e-014
lhumerus 6.33451 -20.8063 110.429
lradius 24.7494
lwrist 0.27375
lhand -10.3523 34.6334
lfingers 7.12502
lthumb 15.6444 64.0209
rfemur -58.1509 -6.65249 39.1645
rtibia 59.0081
rfoot 21.4157 -2.28855
rtoes 11.5713
lfemur -11.9312 17.1228 -46.4679
ltibia 58.0107
lfoot -17.8103 -7.37035
ltoes 33.8123
436
root 4.88467 15.1466 5.77522 -10.4136 -2.97478 2.04693
lowerback 14.9776 -10.5864 -8.11899
upperback 2.77474 -15.1021 6.59449
thorax -1.2423 -7.77257 13.582
lowerneck -11.1532 1.59445 -7.84572
upperneck 29.6141 2.99973 2.74555
head 11.2781 0.720931 2.72349
rclavicle -1.47101e-014 1.59028e-015
rhumerus -59.369 -23.6794 -50.3973
rradius 23.7944
rwrist -7.6141
rhand -13.9422 21.9558
rfingers 7.12502
rthumb 12.1848 -7.66931
lclavicle -1.47101e-014 1.59028e-015
lhumerus 7.24272 -26.4579 111.097
lradius 26.1621
lwrist 1.85282
lhand -9.94623 34.7201
lfingers 7.12502
lthumb 16.0354 64.0766
rfemur -58.0111 -6.0035 39.0743
rtibia 60.0439
rfoot 24.0864 0.637954
rtoes 14.6187
lfemur -11.433 17.0226 -47.2001
ltibia 57.1229
lfoot -16.2488 -8.23515
ltoes 31.4003
437
root 4.99763 15.2137 6.00195 -10.1742 -2.26095 2.62141
lowerback 14.3728 -11.0229 -8.56493
upperback 2.47791 -15.7301 6.5958
thorax -0.945542 -8.10403 13.7132
lowerneck -11.3048 1.9197 -7.76879
upperneck 29.8032 3.55341 2.44038
head 11.3586 0.93493 2.67239
rclavicle 2.18663e-014 7.95139e-015
rhumerus -59.8634 -25.7096 -46.9313
rradius 22.7113
rwrist -4.25695
rhand -13.1697 23.6096
rfingers 7.12502
rthumb 12.9296 -5.96983
lclavicle 2.18663e-014 7.95139e-015
lhumerus 8.34962 -33.0997 111.233
lradius 27.8191
lwrist 4.29478
lhand -9.39232 34.6184
lfingers 7.12502
lthumb 16.5688 63.9311
rfemur -57.0164 -5.62 38.855
rtibia 60.9935
rfoot 26.481 2.50632
rtoes 19.4239
lfemur -10.1554 17.5216 -47.674
ltibia 56.1536
lfoot -14.8605 -9.43354
ltoes 29.9044
438
root 5.11023 15.288 6.21072 -9.96234 -2.01285 1.72655
lowerback 13.5247 -11.3752 -7.2832
upperback 2.55758 -15.9656 6.67289
thorax -0.674316 -8.23248 12.9117
lowerneck -11.3313 2.10627 -7.4269
upperneck 29.7488 3.73702 2.46727
head 11.3347 1.06251 2.64532
rclavicle -1.30005e-013 4.45278e-014
rhumerus -59.9855 -26.4054 -46.3749
rradius 22.7173
rwrist -4.51085
rhand -12.9105 23.8653
rfingers 7.12502
rthumb 13.1794 -5.6981
lclavicle -1.30005e-013 4.45278e-014
lhumerus 9.75823 -40.3049 110.65
lradius 29.6342
lwrist 6.50341
lhand -9.67982 34.4738
lfingers 7.12502
lthumb 16.292 63.8094
rfemur -55.4391 -4.89677 40.2617
rtibia 61.6353
rfoot 28.1071 3.43132
rtoes 21.6107
lfemur -9.10939 18.2628 -46.4064
ltibia 55.4373
lfoot -13.2549 -10.8485
ltoes 29.7309
439
root 5.2353 15.3322 6.39687 -9.07632 -0.990578 1.88369
lowerback 13.1664 -11.8966 -7.08558
upperback 1.69862 -16.6034 6.92334
thorax -1.21934 -8.48034 13.1257
lowerneck -11.2664 2.33296 -7.56199
upperneck 30.0703 4.11065 2.38522
head 11.4253 1.19295 2.68994
rclavicle 1.01181e-013 -2.38542e-014
rhumerus -59.1708 -23.8856 -48.5388
rradius 23.9698
rwrist -8.80566
rhand -14.6539 21.6657
rfingers 7.12502
rthumb 11.4985 -7.99894
lclavicle 1.01181e-013 -2.38542e-014
lhumerus 10.9525 -45.5588 110.826
lradius 31.1886
lwrist 6.81214
lhand -10.1272 34.0166
lfingers 7.12502
lthumb 15.8611 63.387
rfemur -55.0154 -4.62019 40.5019
rtibia 62.1839
rfoot 28.8619 3.44953
rtoes 19.3729
lfemur -8.82456 18.2607 -46.65
ltibia 54.7954
lfoot -11.3296 -12.2297
ltoes 29.6567
440
root 5.36141 15.3721 6.58596 -7.952 0.493852 2.87637
lowerback 12.1135 -12.6177 -7.6231
upperback 1.05535 -17.6014 6.857
thorax -0.951274 -8.97426 13.1205
lowerneck -11.4439 2.62702 -7.37207
upperneck 30.1102 4.56877 2.17701
head 11.4616 1.39325 2.64146
rclavicle 1.23246e-013 -2.54444e-014
rhumerus -57.9369 -20.499 -52.2536
rradius 25.7353
rwrist -13.5952
rhand -17.9466 19.0445
rfingers 7.12502
rthumb 8.32184 -10.7716
lclavicle 1.23246e-013 -2.54444e-014
lhumerus 13.4459 -50.6001 109.419
lradius 32.7203
lwrist 6.73093
lhand -10.4396 33.4291
lfingers 7.12502
lthumb 15.5603 62.8231
rfemur -54.945 -4.74193 39.7441
rtibia 62.7439
rfoot 28.8948 1.87437
rtoes 18.272
lfemur -8.54543 18.1256 -47.7802
ltibia 54.1453
lfoot -9.34516 -13.5638
ltoes 28.9925
441
root 5.47758 15.459 6.80128 -7.3557 1.37773 1.47249
lowerback 10.3799 -13.3574 -5.74927
upperback 1.37914 -18.2997 7.01077
thorax -0.020114 -9.38629 11.8144
lowerneck -11.8376 2.80478 -6.84604
upperneck 29.7728 4.75547 2.12042
head 11.4117 1.54349 2.55526
rclavicle 1.07344e-014 -1.43125e-014
rhumerus -57.6673 -22.3924 -50.9924
rradius 25.4827
rwrist -12.0257
rhand -18.2344 19.3238
rfingers 7.12502
rthumb 8.04412 -10.5031
lclavicle 1.07344e-014 -1.43125e-014
lhumerus 17.8562 -56.2925 105.575
lradius 34.4607
lwrist 7.02563
lhand -9.60776 32.2923
lfingers 7.12502
lthumb 16.3613 61.6222
rfemur -53.3312 -4.47138 41.3709
rtibia 62.8644
rfoot 27.9731 -1.17102
rtoes 21.3232
lfemur -7.68061 18.6768 -45.7724
ltibia 53.5493
lfoot -7.47567 -15.2152
ltoes 28.9319
